<svg xmlns="http://www.w3.org/2000/svg" xmlns:xlink="http://www.w3.org/1999/xlink" width="512" zoomAndPan="magnify" viewBox="0 0 384 383.999986" height="512" preserveAspectRatio="xMidYMid meet" version="1.0"><path fill="#90ee90" d="M 208.914062 238.261719 L 208.914062 16.914062 C 208.914062 12.433594 207.175781 8.136719 203.976562 4.9375 C 200.777344 1.828125 196.480469 0 192 0 C 187.519531 0 183.222656 1.828125 180.023438 4.9375 C 176.824219 8.136719 175.085938 12.433594 175.085938 16.914062 L 175.085938 238.261719 C 175.085938 238.261719 142.8125 205.988281 124.800781 187.976562 C 121.601562 184.777344 117.304688 183.039062 112.824219 183.039062 C 108.34375 183.039062 104.046875 184.777344 100.847656 187.976562 C 94.261719 194.558594 94.261719 205.257812 100.847656 211.839844 L 180.664062 291.65625 C 183.679688 294.675781 187.703125 296.320312 192 296.320312 C 196.296875 296.320312 200.320312 294.675781 203.335938 291.65625 L 283.152344 211.839844 C 289.738281 205.257812 289.738281 194.558594 283.152344 187.976562 C 279.953125 184.777344 275.65625 183.039062 271.175781 183.039062 C 266.695312 183.039062 262.398438 184.777344 259.199219 187.976562 C 241.097656 205.988281 208.914062 238.261719 208.914062 238.261719 Z M 208.914062 238.261719 " fill-opacity="1" fill-rule="evenodd"/><path fill="#90ee90" d="M 0 352 C 0 360.503906 3.382812 368.640625 9.417969 374.582031 C 15.453125 380.617188 23.589844 384 32 384 L 352 384 C 360.503906 384 368.640625 380.617188 374.582031 374.582031 C 380.617188 368.546875 384 360.410156 384 352 L 384 255.175781 C 384 245.851562 376.410156 238.261719 367.085938 238.261719 C 362.605469 238.261719 358.308594 240.089844 355.109375 243.199219 C 351.910156 246.398438 350.171875 250.695312 350.171875 255.175781 L 350.171875 334.261719 C 350.171875 343.132812 343.039062 350.261719 334.171875 350.261719 L 49.828125 350.261719 C 40.960938 350.261719 33.828125 343.132812 33.828125 334.261719 L 33.828125 255.175781 C 33.828125 250.695312 32 246.398438 28.890625 243.199219 C 25.691406 240 21.394531 238.261719 16.914062 238.261719 C 7.589844 238.261719 0 245.851562 0 255.175781 Z M 0 352 " fill-opacity="1" fill-rule="evenodd"/></svg>