<svg xmlns="http://www.w3.org/2000/svg" xmlns:xlink="http://www.w3.org/1999/xlink" width="512" zoomAndPan="magnify" viewBox="0 0 384 383.999986" height="512" preserveAspectRatio="xMidYMid meet" version="1.0"><path fill="#90ee90" d="M 376.460938 48.417969 L 342.300781 14.269531 C 338.773438 10.738281 334.132812 8.96875 329.503906 8.96875 C 324.875 8.96875 320.246094 10.730469 316.71875 14.261719 L 289.390625 41.535156 L 349.136719 101.238281 L 376.460938 73.96875 C 383.523438 66.910156 383.523438 55.457031 376.460938 48.417969 Z M 376.460938 48.417969 " fill-opacity="1" fill-rule="nonzero"/><path fill="#90ee90" d="M 112.007812 218.765625 L 171.761719 278.472656 L 336.347656 114.027344 L 276.597656 54.320312 Z M 112.007812 218.765625 " fill-opacity="1" fill-rule="nonzero"/><path fill="#90ee90" d="M 99.113281 231.542969 L 86.355469 303.972656 L 158.863281 291.242188 Z M 99.113281 231.542969 " fill-opacity="1" fill-rule="nonzero"/><path fill="#90ee90" d="M 264.289062 336.246094 L 39.003906 336.246094 L 39.003906 110.742188 L 197.992188 110.742188 L 237.171875 71.597656 L 25.183594 71.597656 C 11.269531 71.597656 -0.109375 82.988281 -0.109375 96.914062 L -0.109375 350.082031 C -0.109375 364.007812 11.269531 375.398438 25.183594 375.398438 L 278.097656 375.398438 C 292.011719 375.398438 303.390625 364.007812 303.390625 350.082031 L 303.390625 169.078125 L 264.289062 208.148438 Z M 264.289062 336.246094 " fill-opacity="1" fill-rule="nonzero"/></svg>